# xmcd
#
# Track frame offsets:
#	150
#	12239
#	30280
#	42929
#	54548
#	67565
#	80894
#	121324
#	138215
#	151953
#	169643
#	183732
#
# Disc length: 2679
#
# Revision: 2
# Processed by: cddbd v1.5.1PL0 Copyright (c) Steve Scherf et al.
# Submitted via: EasyCDDAExtractor 7.0.5.4
# Normalized: r1:DSETVAR1
#
DISCID=900a750c
DTITLE=Various Artist - Country Hits
DYEAR=1900
DGENRE=Country
TTITLE0=Oakridge Boys - My Baby Is American Made
TTITLE1=Faith Hill - Cry
TTITLE2=Clint Black - Killing Time
TTITLE3=Willie Nelson - On The Road Again
TTITLE4=Wynonna Judd - Girls Night Out
TTITLE5=Tim McGraw - Country Boys And Girls
TTITLE6=Garth Brooks - Friends In Low Places
TTITLE7=LeAnn Rimes - One Way Ticket
TTITLE8=Aaron Tippin - You Gotta Start Somewhere
TTITLE9=Alan Jackson - It's Five O'Clock Somewhere
TTITLE10=Patti Loveless - I'm That Kind Of Girl
TTITLE11=Dierks Bentley - What Was I Thinkin'
EXTD=
EXTT0=
EXTT1=
EXTT2=
EXTT3=
EXTT4=
EXTT5=
EXTT6=
EXTT7=
EXTT8=
EXTT9=
EXTT10=
EXTT11=
PLAYORDER=
